<svg width="25" height="24" viewBox="0 0 25 24" fill="none" xmlns="http://www.w3.org/2000/svg">
<path d="M18.5 3H6.5C5.70435 3 4.94129 3.31607 4.37868 3.87868C3.81607 4.44129 3.5 5.20435 3.5 6V18C3.5 18.7956 3.81607 19.5587 4.37868 20.1213C4.94129 20.6839 5.70435 21 6.5 21H18.5C19.2956 21 20.0587 20.6839 20.6213 20.1213C21.1839 19.5587 21.5 18.7956 21.5 18V6C21.5 5.20435 21.1839 4.44129 20.6213 3.87868C20.0587 3.31607 19.2956 3 18.5 3ZM6.5 5H18.5C18.7652 5 19.0196 5.10536 19.2071 5.29289C19.3946 5.48043 19.5 5.73478 19.5 6V8H5.5V6C5.5 5.73478 5.60536 5.48043 5.79289 5.29289C5.98043 5.10536 6.23478 5 6.5 5V5ZM5.5 18V10H11.5V19H6.5C6.23478 19 5.98043 18.8946 5.79289 18.7071C5.60536 18.5196 5.5 18.2652 5.5 18ZM18.5 19H13.5V10H19.5V18C19.5 18.2652 19.3946 18.5196 19.2071 18.7071C19.0196 18.8946 18.7652 19 18.5 19Z" fill="#FDFBFB"/>
</svg>
