<svg width="24" height="24" viewBox="0 0 24 24" fill="none" xmlns="http://www.w3.org/2000/svg">
<path d="M12 12.75C8.69175 12.75 6 10.0582 6 6.75C6 3.44175 8.69175 0.75 12 0.75C15.3082 0.75 18 3.44175 18 6.75C18 10.0582 15.3082 12.75 12 12.75ZM12 2.25C9.51825 2.25 7.5 4.26825 7.5 6.75C7.5 9.23175 9.51825 11.25 12 11.25C14.4818 11.25 16.5 9.23175 16.5 6.75C16.5 4.26825 14.4818 2.25 12 2.25Z" fill="#FDFBFB"/>
<path d="M12.3 9.89997H11.7C10.8413 9.89997 10.0725 9.32473 9.83025 8.50198C9.71325 8.10448 9.93975 7.68748 10.338 7.57048C10.7363 7.45573 11.1525 7.68148 11.2687 8.07823C11.325 8.26797 11.5028 8.40073 11.7 8.40073H12.3C12.5482 8.40073 12.75 8.19897 12.75 7.95072C12.75 7.70247 12.5482 7.49998 12.3 7.49998H11.7C10.6245 7.49998 9.75 6.62473 9.75 5.54998C9.75 4.47523 10.6245 3.59998 11.7 3.59998H12.3C13.1407 3.59998 13.8832 4.13548 14.1495 4.93348C14.2807 5.32648 14.0685 5.75098 13.6755 5.88223C13.2787 6.01498 12.858 5.80048 12.7267 5.40823C12.666 5.22373 12.4942 5.09998 12.3 5.09998H11.7C11.4518 5.09998 11.25 5.30173 11.25 5.54998C11.25 5.79823 11.4518 5.99998 11.7 5.99998H12.3C13.3755 5.99998 14.25 6.87523 14.25 7.94998C14.25 9.02473 13.3755 9.89997 12.3 9.89997Z" fill="#FDFBFB"/>
<path d="M12 4.50002C11.7968 4.50002 11.6092 4.41752 11.4675 4.28252C11.4375 4.24502 11.4 4.20752 11.3775 4.16252C11.3475 4.12502 11.325 4.08002 11.31 4.03502C11.2875 3.99002 11.2725 3.94502 11.2643 3.90002C11.2575 3.84752 11.25 3.80252 11.25 3.75002C11.25 3.55502 11.3317 3.36002 11.4675 3.21752C11.745 2.94002 12.2475 2.94002 12.5325 3.21752C12.6675 3.36002 12.75 3.55502 12.75 3.75002C12.75 3.80252 12.7425 3.84752 12.7343 3.90002C12.7268 3.94502 12.7125 3.99002 12.6893 4.03502C12.6735 4.08002 12.6518 4.12502 12.6218 4.16252C12.5918 4.20752 12.5617 4.24502 12.5317 4.28252C12.39 4.41752 12.195 4.50002 12 4.50002ZM12 10.5C11.7968 10.5 11.6092 10.4175 11.4675 10.2825C11.4375 10.245 11.4 10.2075 11.3775 10.1625C11.3475 10.125 11.325 10.08 11.31 10.035C11.2875 9.99002 11.2725 9.94502 11.2643 9.90002C11.2575 9.84752 11.25 9.80252 11.25 9.75002C11.25 9.55502 11.3317 9.36002 11.4675 9.21752C11.745 8.94002 12.2475 8.94002 12.5325 9.21752C12.6675 9.36002 12.75 9.55502 12.75 9.75002C12.75 9.80252 12.7425 9.84752 12.7343 9.90002C12.7268 9.94502 12.7125 9.99002 12.6893 10.035C12.6735 10.08 12.6518 10.125 12.6218 10.1625C12.5918 10.2075 12.5617 10.245 12.5317 10.2825C12.39 10.4175 12.195 10.5 12 10.5ZM13.5 23.25H1.5C1.08525 23.25 0.75 22.914 0.75 22.5V15.75C0.75 15.5513 0.82875 15.36 0.96975 15.2198C1.14525 15.0435 2.73975 13.5 4.5 13.5C5.958 13.5 7.839 14.6018 8.47125 15H12C13.2405 15 14.25 16.0095 14.25 17.25C14.25 17.3828 14.238 17.5125 14.2162 17.6393L20.1345 15.1733C20.8305 14.883 21.6202 14.9603 22.248 15.378C22.8757 15.7965 23.25 16.4963 23.25 17.25C23.25 17.5163 23.109 17.7638 22.878 17.898L13.878 23.148C13.7632 23.2148 13.6328 23.25 13.5 23.25ZM2.25 21.75H13.2968L21.6517 16.8765C21.5955 16.7783 21.5153 16.6928 21.4163 16.626C21.204 16.4843 20.946 16.4595 20.712 16.5578L13.7895 19.4423C13.6972 19.4805 13.599 19.5 13.5 19.5H7.5C7.08525 19.5 6.75 19.164 6.75 18.75C6.75 18.336 7.08525 18 7.5 18H12C12.414 18 12.75 17.6633 12.75 17.25C12.75 16.8368 12.414 16.5 12 16.5H8.25C8.10225 16.5 7.95675 16.4558 7.83375 16.3748C7.26 15.9923 5.54025 15 4.5 15C3.6825 15 2.73975 15.66 2.25 16.0793V21.75Z" fill="#FDFBFB"/>
</svg>
