<svg width="25" height="24" viewBox="0 0 25 24" fill="none" xmlns="http://www.w3.org/2000/svg">
<path d="M1.5 5.49992V6.35212L2.11307 6.70957C1.74136 6.43651 1.5 5.99629 1.5 5.49992ZM1.5 5.49992C1.5 4.67157 2.17164 3.99992 3 3.99992C2.17186 3.99992 1.5 4.67178 1.5 5.49992ZM13.0855 3.99992L13.1337 3.99992L13.0512 4.02983L10.493 4.95679L10.325 3.99992L13.0855 3.99992ZM5.04674 6.94415L7.53397 6.04298L7.702 6.99992H4.90984L4.99649 6.9666C5.01516 6.95942 5.03194 6.95172 5.04674 6.94415ZM5.12862 6.89232C5.12807 6.89273 5.1264 6.894 5.12434 6.89552L5.12852 6.89239C5.12889 6.89211 5.12889 6.89211 5.12862 6.89232ZM17.0075 2.62842H16.9592L17.3013 2.50446L17.3464 2.62842H17.008H17.0075ZM3.5 21.9999C2.39514 21.9999 1.5 21.1048 1.5 19.9999C1.5 21.1047 2.39597 21.9999 3.5 21.9999Z" fill="#FDFBFB" stroke="#FDFBFB"/>
</svg>
